PathFileType	4	(X/Y/Z)	C:/Users/beibeiliu/ov580/test_trc\sequence.22_training_dense_left.trc
DataRate	CameraRate	NumFrames	NumMarkers	Units	OrigDataRate	OrigDataStartFrame	OrigNumFrames
120	120	18	19	mm	120	122	324
Frame#	Time	ThumbCMC			ThumbMCP			ThumbIP			ThumbTip			IndexMCP			IndexPIP			IndexTip			MiddleMCP			MiddlePIP			MiddleTip			RingMCP			RingPIP			RingTip			PinkyMCP			PinkyPIP			PinkyTip			BackHand1			BackHand2			BackHand3	
		X0	Y0	Z0	X1	Y1	Z1	X2	Y2	Z2	X3	Y3	Z3	X4	Y4	Z4	X5	Y5	Z5	X6	Y6	Z6	X7	Y7	Z7	X8	Y8	Z8	X9	Y9	Z9	X10	Y10	Z10	X11	Y11	Z11	X12	Y12	Z12	X13	Y13	Z13	X14	Y14	Z14	X15	Y15	Z15	X16	Y16	Z16	X17	Y17	Z17	X18	Y18	Z18	
121	1.00833	-232.628	56.1537	26.594	-220.256	62.51	2.18755	-219.173	71.5051	-20.2324	-216.245	80.8159	-41.3004	-269.149	50.2513	-27.9252	-263.398	56.287	-49.4415	-247.332	61.6746	-71.9287	-256.296	33.8496	-38.1028	-233.641	44.7104	-46.1262	-218.618	39.9239	-16.8143	-245.289	15.6475	-34.2749	-220.835	27.2725	-35.5761	-218.799	27.8837	-7.13404	-239.771	0.798943	-28.3283	-219.691	15.9597	-33.273	-218.061	22.333	-8.36633	-256.691	6.73	12.698	-243.709	2.99495	40.6313	-258.494	30.4507	32.6848	
122	1.01667	-226.664	54.0426	28.3133	-217.416	63.0583	-0.711307	-213.426	74.3795	-23.2769	-211.439	80.1479	-41.4116	-267.456	59.6189	-26.6634	-261.741	63.9715	-45.9604	-249.574	69.7373	-66.1524	-258.108	39.532	-34.6483	-231.373	46.3181	-43.7837	-219.408	45.4229	-12.9749	-247.315	21.5501	-34.655	-221.334	29.6403	-34.1877	-218.058	29.2494	-7.61816	-242.424	6.08117	-31.1135	-223.617	18.1396	-32.1906	-223.062	26.2503	-7.12471	-259.359	10.8049	13.4562	-247.082	8.12152	42.4791	-254.674	38.7479	34.4557	
123	1.025	-221.326	60.3706	25.6984	-212.665	65.6206	-3.70078	-211.009	71.6082	-24.3135	-204.758	78.9673	-40.389	-263.162	69.309	-20.9203	-258.773	70.0544	-48.0854	-244.417	73.4721	-69.3046	-257.687	47.508	-31.9009	-230.705	44.7817	-42.531	-218.058	45.6289	-13.4766	-252.7	29.3169	-28.8944	-224.396	31.1138	-33.4491	-220.397	31.697	-4.96388	-250.076	11.2229	-24.41	-227.706	21.5003	-30.0669	-220.039	24.5722	-6.9498	-258.643	17.0847	20.0515	-247.605	16.6884	42.1399	-250.922	40.5779	37.4269	
124	1.03333	-216.434	58.4031	25.6757	-208.883	61.228	-2.71455	-205.235	71.8238	-25.2372	-201.988	75.7667	-40.9058	-259.573	71.8323	-18.5536	-257.182	73.2976	-42.7904	-245.907	74.6681	-66.3618	-256.712	54.1713	-28.1262	-229.701	46.0325	-40.9028	-216.87	43.9433	-12.5214	-254.618	32.0286	-27.7019	-228.41	33.7319	-34.7422	-221.56	34.0792	-4.00371	-253.962	13.7254	-22.8788	-230.103	21.8779	-28.4926	-222.82	25.5925	-3.93565	-260.694	27.9219	20.8986	-246.572	17.8788	46.2424	-244.827	45.9937	38.3573	
125	1.04167	-211.996	57.7973	26.6381	-202.013	60.4054	-0.636968	-200.424	67.7802	-22.7776	-198.909	73.819	-40.5073	-255.062	78.2451	-14.5232	-254.153	81.949	-39.7924	-246.209	79.1645	-65.1352	-253.957	57.3752	-29.917	-229.926	46.6845	-39.769	-218.038	41.0201	-9.69206	-255.726	35.7711	-27.5129	-226.198	35.6165	-30.5496	-221.228	30.0081	-3.45132	-257.446	19.0827	-20.8557	-233.133	23.3245	-28.8238	-224.096	24.4492	-4.81861	-261.546	29.6576	22.542	-248.481	22.8897	45.2739	-242.635	49.6541	39.0729	
126	1.05	-207.953	55.3195	26.199	-201.714	56.3963	0.294032	-198.197	67.7898	-24.7275	-196.116	72.2858	-41.6587	-252.025	83.1122	-17.242	-250.987	85.592	-39.2193	-245.507	80.5463	-66.1981	-254.777	58.4859	-23.7777	-230.714	51.4413	-41.0505	-215.939	41.6635	-12.6121	-253.97	38.9551	-29.6132	-229.493	33.7171	-30.1576	-221.893	30.916	-4.66354	-260.736	21.6493	-20.7485	-237.399	25.3148	-29.2391	-227.408	25.0932	-3.46434	-262.608	36.3145	23.7733	-244.983	22.6815	47.5495	-243.373	51.2282	38.9024	
127	1.05833	-205.837	53.6477	27.095	-195.532	56.0642	-1.20346	-197.576	62.7143	-23.0282	-192.783	72.2742	-44.9168	-249.016	83.3937	-15.5611	-247.5	88.0895	-37.2285	-243.56	84.3445	-65.0182	-249.459	64.3796	-26.93	-228.929	48.9813	-38.5507	-218.116	39.4749	-8.86713	-253.71	43.6023	-26.8711	-231.377	32.7219	-29.9515	-223.442	33.4713	-0.171568	-261.367	25.3073	-20.2157	-237.226	20.8533	-26.6919	-229.092	26.1801	-0.58723	-258.378	38.3859	28.0963	-248.679	28.1339	46.8916	-241.409	52.5913	38.8331	
128	1.06667	-204.571	50.8588	27.1205	-195.619	53.3954	-1.65298	-195.677	61.4373	-24.4146	-190.469	66.8188	-41.6888	-245.085	84.8003	-11.614	-244.959	90.058	-38.0724	-238.168	90.0683	-58.9664	-249.234	63.9321	-26.6815	-228.175	49.5604	-39.0942	-220.462	38.0061	-9.61003	-253.741	45.0526	-27.4825	-232.46	34.053	-30.2005	-225.442	32.3592	0.444216	-261.813	31.1706	-16.9551	-237.431	22.087	-24.001	-231.364	28.7802	3.09096	-259.531	41.4242	26.0024	-248.286	27.3541	49.2301	-235.808	53.6388	42.482	
129	1.075	-202.836	49.1694	26.1493	-196.297	50.6041	-2.92459	-195.047	60.7338	-26.6599	-191.559	63.8185	-40.4372	-237.721	88.4151	-9.71758	-239.051	93.4511	-38.9421	-234.734	92.3425	-58.6797	-249.92	64.923	-23.3616	-228.446	49.6111	-37.6722	-219.922	37.8573	-9.35182	-253.648	46.8926	-25.5609	-232.319	33.0211	-28.7215	-226.479	30.9619	-0.4306	-263.256	32.349	-18.3964	-238.13	25.7694	-23.1119	-230.818	29.0892	3.95706	-258.782	44.2136	27.7373	-246.951	30.8406	49.2224	-233.154	55.918	40.2122	
130	1.08333	-202.954	47.9016	24.3313	-194.893	51.3328	-5.18544	-192.901	57.6289	-26.7519	-187.574	63.4417	-43.3384	-233.063	89.3316	-9.61889	-236.839	93.8578	-36.8868	-233.48	90.9141	-61.965	-245.147	69.7215	-23.5328	-229.634	51.0815	-39.1741	-219.445	38.5624	-11.7415	-256.052	50.1585	-21.7773	-229.451	36.2074	-26.6727	-226.637	32.4869	1.68833	-260.689	37.1028	-18.6895	-240.04	28.0384	-22.8064	-233.299	27.7707	3.03013	-260.534	48.3284	26.3701	-247.283	30.3233	46.8578	-230.981	53.6106	42.2628	
131	1.09167	-202.527	42.5976	24.9043	-195.563	45.897	-4.83865	-190.686	52.6762	-24.776	-188.138	58.3644	-44.2544	-230.429	89.3196	-12.5676	-231.667	94.1194	-34.021	-232.09	90.0458	-58.9651	-243.791	70.9339	-25.1402	-228.76	50.4324	-39.0146	-221.596	37.1122	-8.96872	-253.229	51.5846	-23.1642	-233.335	32.8578	-28.331	-228.866	28.1006	-1.77954	-260.347	41.3921	-16.7087	-242.362	26.428	-22.1261	-234.356	25.2043	5.43207	-258.63	47.1508	27.8285	-246.19	33.6497	48.8331	-229.988	52.057	41.8246	
132	1.1	-201.406	41.8979	23.0337	-192.119	43.346	-7.29314	-189.786	51.583	-27.1945	-185.555	54.5673	-43.3283	-228.146	87.4653	-12.2871	-230.803	92.9649	-36.9059	-227.637	91.3087	-59.9286	-241.231	71.1912	-26.2218	-230.262	48.6396	-39.0709	-221.874	36.9391	-8.17103	-249.055	55.7176	-24.5617	-233.806	33.2245	-28.0238	-226.637	30.4005	-2.49757	-260.239	43.5067	-16.9417	-241.861	27.8336	-21.8287	-236.412	26.3369	3.70906	-254.323	51.3516	25.2891	-244.197	31.8062	50.2005	-227.336	57.194	38.5973	
133	1.10833	-198.007	40.7971	21.1394	-191.729	39.1943	-5.17238	-190.76	46.9484	-26.9474	-183.959	53.829	-47.7511	-222.655	87.9171	-11.4924	-226.508	92.0586	-36.8046	-224.266	90.6999	-62.6894	-240.054	72.2731	-24.491	-226.826	51.9997	-40.1792	-223.054	35.5069	-12.3867	-254.648	56.0837	-21.8516	-235.24	37.712	-30.4452	-228.267	31.2047	-2.11118	-263.959	43.7869	-17.3123	-246.698	27.2716	-24.6321	-235.677	26.8953	-1.78413	-253.196	51.5957	30.0428	-245.641	33.8272	49.3516	-227.197	53.694	40.3468	
134	1.11667	-199.288	35.8121	22.7937	-195.774	39.5049	-8.43827	-191.676	45.9506	-28.495	-185.836	49.6364	-46.7734	-220.326	87.7563	-11.5748	-217.792	93.9473	-39.9511	-222.104	89.8396	-60.559	-235.419	74.9886	-24.1766	-229.102	53.62	-41.7906	-218.472	38.7424	-11.9593	-252.594	59.2113	-22.5857	-234.795	38.6963	-31.101	-230.5	29.7182	-2.59065	-263.199	47.526	-20.5648	-243.447	32.2758	-24.6344	-234.17	29.4941	-1.31737	-252.747	55.0975	25.1946	-244.839	39.7976	47.3443	-224.182	56.5775	39.3958	
135	1.125	-198.292	32.7386	24.5839	-192.963	34.2457	-5.8537	-190.428	43.1291	-29.5391	-182.438	46.0015	-47.5224	-215.963	88.6351	-15.4832	-218.249	92.5074	-39.908	-219.276	89.8898	-62.999	-232.989	75.8511	-23.4398	-225.703	55.6912	-41.2406	-222.2	37.4675	-9.72259	-245.535	63.1195	-24.024	-236.081	37.864	-31.1533	-228.075	31.5398	-4.97856	-261.443	53.2257	-14.4125	-245.789	34.2102	-25.7854	-234.931	27.7984	-3.60696	-248.832	57.2596	27.9479	-248.797	39.4892	45.474	-222.123	54.7941	39.1935	
136	1.13333	-201.899	33.8766	20.1677	-193.623	34.3328	-9.47495	-187.793	37.9538	-27.7552	-182.101	44.062	-48.9653	-210.426	88.2616	-16.0938	-213.816	93.2045	-38.8297	-215.407	90.9091	-61.4319	-229.697	77.8787	-24.5655	-224.392	54.8678	-41.7948	-217.286	38.7899	-13.5117	-246.882	65.7117	-21.8482	-237.729	45.0777	-33.8393	-230.619	31.0224	-6.33626	-260.34	57.3813	-19.4162	-250.065	37.7709	-27.5032	-235.218	30.4384	-2.73516	-244.912	57.8666	28.8122	-246.663	41.4305	46.8546	-221.632	54.757	38.0198	
137	1.14167	-200.936	31.5484	19.4223	-193.08	28.9079	-8.52371	-189.642	37.5404	-31.1812	-183.321	41.2896	-50.6777	-204.289	85.3102	-13.2573	-203.299	91.8575	-41.1202	-205.746	89.1985	-65.0035	-224.698	77.9281	-21.8891	-223.432	54.699	-43.4799	-222.232	36.4868	-15.987	-245.704	69.4344	-21.2349	-240.439	45.8144	-34.7129	-229.627	32.8573	-8.25908	-257.455	62.7272	-17.5851	-249.019	42.1119	-27.5139	-236.53	32.2572	-9.66236	-241.788	61.6944	28.5963	-242.961	41.7979	45.978	-214.749	54.655	37.119	
138	1.15	-200	26.6156	19.1958	-194.487	26.8716	-9.76625	-185.16	34.6299	-34.6919	-179.841	36.0514	-51.4558	-199.423	84.7863	-17.4701	-202.432	90.8049	-43.8786	-202.954	86.5216	-69.2953	-223.266	78.9249	-27.6142	-223.189	54.271	-44.0975	-221.122	35.9053	-18.7112	-240.182	72.2956	-21.9609	-235.944	47.9995	-35.9196	-233.715	32.7268	-12.5766	-252.166	66.4314	-19.2843	-247.955	44.6921	-28.9763	-236.229	34.8788	-11.2167	-240.041	67.4377	25.6664	-239.398	42.5236	46.4782	-210.981	54.7613	33.9357	
